<?xml version="1.0" encoding="UTF-8"?>
<svg version="1.1" xmlns="http://www.w3.org/2000/svg" width="1000" height="400">
<path d="M0 0 C330 0 660 0 1000 0 C1000 132 1000 264 1000 400 C670 400 340 400 0 400 C0 268 0 136 0 0 Z " fill="#F9F9F9" transform="translate(0,0)"/>
<path d="M0 0 C16.83 0 33.66 0 51 0 C53.19462891 6.11208984 53.19462891 6.11208984 55.43359375 12.34765625 C68.50527659 48.75333657 68.50527659 48.75333657 81.63479614 85.13818359 C82.6267059 87.87971493 83.61792876 90.621494 84.60913086 93.36328125 C87.88513981 102.42069586 91.17083517 111.47450612 94.47225761 120.52268982 C96.4293838 125.88667399 98.38323568 131.25184417 100.33520699 136.6177063 C101.76044239 140.53462605 103.19027296 144.44982733 104.62358284 148.3637991 C105.72195599 151.36732427 106.81354049 154.37331688 107.90625 157.37890625 C108.5064949 159.01142586 108.5064949 159.01142586 109.11886597 160.67692566 C109.66814255 162.19338432 109.66814255 162.19338432 110.22851562 163.74047852 C110.54808228 164.61575699 110.86764893 165.49103546 111.19689941 166.39283752 C112 169 112 169 113 175 C98.15 175 83.3 175 68 175 C64.7 165.1 61.4 155.2 58 145 C25.33 144.505 25.33 144.505 -8 144 C-8.99 147.63 -9.98 151.26 -11 155 C-14.465 164.9 -14.465 164.9 -18 175 C-32.85 175 -47.7 175 -63 175 C-58.29391886 161.5540539 -53.58129414 148.11120709 -48.8125 134.6875 C-48.4767395 133.74235535 -48.140979 132.79721069 -47.79504395 131.82342529 C-39.95816442 109.78021218 -31.95726172 87.79711782 -23.94309998 65.81787109 C-20.71799084 56.97265919 -17.49817339 48.12553506 -14.28125 39.27734375 C-14.04729271 38.63384476 -13.81333542 37.99034576 -13.57228851 37.3273468 C-12.41592604 34.14670097 -11.25963965 30.96602749 -10.10339355 27.78533936 C-7.95995847 21.88929792 -5.81589651 15.99348446 -3.671875 10.09765625 C-2.46015625 6.76542969 -1.2484375 3.43320313 0 0 Z " fill="#010101" transform="translate(634,148)"/>
<path d="M0 0 C1.62639404 -0.01522705 1.62639404 -0.01522705 3.28564453 -0.03076172 C20.21122684 0.15134411 35.78709569 5.77105811 48.875 16.4375 C50.04675781 17.32888672 50.04675781 17.32888672 51.2421875 18.23828125 C64.86824565 29.24757045 72.96988135 47.34665294 74.875 64.4375 C76.71375172 84.93219983 71.50346469 103.18288041 59.125 119.6875 C54.64493631 125.02711079 49.44942143 129.28563122 43.875 133.4375 C43.25367187 133.91960937 42.63234375 134.40171875 41.9921875 134.8984375 C25.8815315 146.24091729 3.08552817 147.67941336 -15.77294922 145.07128906 C-33.47018706 141.53110549 -49.47134519 130.91501209 -60.0625 116.375 C-71.53844646 98.65970401 -76.20973405 78.2032212 -72.2890625 57.32421875 C-68.11905381 38.72858624 -57.88449344 22.42779811 -41.70703125 11.95703125 C-27.93828059 3.85409024 -15.92378749 0.10581338 0 0 Z " fill="#663499" transform="translate(75.125,179.5625)"/>
<path d="M0 0 C16.14313537 12.86305607 23.26541367 28.52998204 26.625 48.6875 C26.625 57.2675 26.625 65.8475 26.625 74.6875 C-6.045 74.6875 -38.715 74.6875 -72.375 74.6875 C-65.46706403 86.20072661 -60.27545816 92.19362592 -47.375 95.6875 C-33.38645046 97.25824815 -21.77586239 93.90877815 -9.60009766 87.38085938 C-3.89699155 84.4620431 1.59515871 83.40444636 7.83032227 85.38964844 C14.21545409 88.04342064 18.71194978 93.20574861 21.9921875 99.17578125 C22.625 101.6875 22.625 101.6875 21.640625 103.828125 C8.97774265 118.95634728 -7.35878564 130.18254686 -27.375 132.6875 C-50.49924451 133.90356349 -73.03033063 131.60921891 -91.171875 115.8125 C-106.47234702 101.05459791 -114.29646499 84.44825087 -114.71826172 63.10327148 C-114.9092311 40.67024574 -109.93339435 23.1118502 -94.234375 6.41015625 C-69.78797417 -17.26723528 -27.4696185 -19.7891962 0 0 Z " fill="#673499" transform="translate(403.375,192.3125)"/>
<path d="M0 0 C90.77719224 0 90.77719224 0 107.8828125 16.62890625 C118.91415878 28.98319996 120.99367732 43.63500991 120.21899414 59.61547852 C119.13130064 71.45884796 113.9836029 83.04702076 105 91 C90.57372311 101.66099673 75.65342132 105.38714685 57.9284668 105.44604492 C52.49073686 105.55668856 49.24573606 106.27219258 45 110 C42.196197 113.85738121 41.60046387 116.66042489 41.48828125 121.39453125 C41.43861206 123.02032104 41.43861206 123.02032104 41.38793945 124.67895508 C41.35059692 126.72505981 41.35059692 126.72505981 41.3125 128.8125 C41.209375 133.164375 41.10625 137.51625 41 142 C27.47 142 13.94 142 0 142 C0 95.14 0 48.28 0 0 Z " fill="#673499" transform="translate(162,182)"/>
<path d="M0 0 C13.01060814 7.34409686 19.67156528 17.97455171 23.75991821 32.11251831 C24.90507806 36.76042039 25.02223045 41.21235497 25.01708984 45.98095703 C25.02380707 46.88932312 25.03052429 47.79768921 25.03744507 48.73358154 C25.05632429 51.71306945 25.06034331 54.69233115 25.0625 57.671875 C25.06893193 59.75357148 25.07566058 61.83526706 25.08267212 63.91696167 C25.09461746 68.26936948 25.09835546 72.62169806 25.09716797 76.97412109 C25.09696425 82.54713557 25.12433379 88.11964317 25.15871239 93.69253731 C25.18095427 97.98711479 25.18500644 102.28156939 25.18394852 106.57619858 C25.18630596 108.63107942 25.19513752 110.68596358 25.21061325 112.74078751 C25.23023017 115.61287313 25.22445335 118.48385325 25.21240234 121.35595703 C25.22364136 122.20078644 25.23488037 123.04561584 25.24645996 123.91604614 C25.18984325 129.23162784 24.41243417 132.43043508 20.7265625 136.5390625 C16.23591044 139.52798329 12.68926049 139.89810421 7.359375 139.83203125 C6.67978729 139.82778641 6.00019958 139.82354156 5.30001831 139.81916809 C3.15011326 139.80250516 1.00117951 139.76487966 -1.1484375 139.7265625 C-2.6145697 139.7114995 -4.08071674 139.69781393 -5.546875 139.68554688 C-9.12270625 139.6526433 -12.69797691 139.60094913 -16.2734375 139.5390625 C-16.27486252 138.44626984 -16.27628754 137.35347717 -16.27775574 136.22756958 C-16.29446731 125.89974887 -16.33736784 115.57232008 -16.40552807 105.24470711 C-16.43973401 99.93586772 -16.46489812 94.62731416 -16.46899414 89.31835938 C-16.47329077 84.18930228 -16.50186671 79.06088928 -16.54686928 73.93203354 C-16.5598007 71.98099401 -16.5641675 70.02987722 -16.55959129 68.0788002 C-16.14267332 53.4294067 -16.14267332 53.4294067 -22.2734375 40.5390625 C-27.66687647 35.96148983 -32.96321981 36.12620414 -39.8125 36.2109375 C-44.73682026 36.67780308 -47.13201254 37.79642768 -50.2734375 41.5390625 C-56.00471846 50.54058123 -54.87833131 61.5419434 -54.8828125 71.765625 C-54.89781146 73.72432816 -54.91454219 75.68301876 -54.93292236 77.64169312 C-54.97641538 82.76752336 -54.99655482 87.89318303 -55.01165771 93.01916504 C-55.0347537 99.18519563 -55.08716243 105.35103984 -55.13459778 111.516922 C-55.20320638 120.85768387 -55.23482175 130.19791179 -55.2734375 139.5390625 C-68.8034375 139.5390625 -82.3334375 139.5390625 -96.2734375 139.5390625 C-96.2734375 93.0090625 -96.2734375 46.4790625 -96.2734375 -1.4609375 C-82.7434375 -1.4609375 -69.2134375 -1.4609375 -55.2734375 -1.4609375 C-54.7784375 5.4690625 -54.7784375 5.4690625 -54.2734375 12.5390625 C-53.2009375 11.1778125 -52.1284375 9.8165625 -51.0234375 8.4140625 C-38.76121336 -5.49336165 -16.34506575 -7.56012085 0 0 Z " fill="#663399" transform="translate(539.2734375,183.4609375)"/>
<path d="M0 0 C10.50649086 9.10774473 18.33990522 20.37740024 22.14453125 33.86328125 C22.1768126 35.52963526 22.18194933 37.19703467 22.14453125 38.86328125 C15.82795213 39.0663234 9.51221497 39.20629638 3.19311523 39.30273438 C1.04435789 39.34293745 -1.10418099 39.3975113 -3.25219727 39.46679688 C-6.34315821 39.56399241 -9.43122613 39.60923745 -12.5234375 39.64453125 C-13.96120796 39.70646667 -13.96120796 39.70646667 -15.42802429 39.76965332 C-18.12930561 39.7714658 -20.28256679 39.69312659 -22.85546875 38.86328125 C-24.64749138 36.97794105 -25.71566802 35.20671502 -26.83808899 32.86657715 C-28.92754305 28.75228776 -32.450684 26.54933892 -36.54296875 24.55078125 C-43.624664 23.08099544 -50.62119416 22.70763503 -57.01171875 26.4921875 C-64.81769671 32.2970567 -68.19833343 39.35448094 -69.85546875 48.86328125 C-71.06938877 61.58653733 -70.411872 74.31732698 -62.5546875 84.9140625 C-58.47610009 89.59271794 -55.33092249 91.55448754 -49.06640625 92.3359375 C-42.55414338 92.6968802 -35.91356454 92.84625149 -30.57644653 88.61424255 C-28.63702709 86.64103382 -27.59839681 84.66065825 -26.29638672 82.22680664 C-23.60528672 78.12506532 -23.60528672 78.12506532 -20.58551025 77.07077026 C-17.82453142 76.82181216 -15.19469577 76.84946116 -12.42578125 76.984375 C-11.43544891 76.99710953 -10.44511658 77.00984406 -9.42477417 77.02296448 C-6.27413796 77.0731885 -3.12935055 77.18605343 0.01953125 77.30078125 C2.1600728 77.3459424 4.30070504 77.38700414 6.44140625 77.42382812 C11.67776309 77.52283977 16.91072948 77.67325107 22.14453125 77.86328125 C21.84468526 79.4539051 21.53973538 81.04356732 21.23266602 82.6328125 C21.06340103 83.51815674 20.89413605 84.40350098 20.71974182 85.31567383 C18.34926699 95.81450605 11.70710063 104.51225227 4.14453125 111.86328125 C3.5309375 112.4975 2.91734375 113.13171875 2.28515625 113.78515625 C-11.81711537 127.40529893 -32.05153711 130.44892117 -50.8671875 130.1328125 C-67.64305019 129.47929108 -83.34506241 122.37229278 -95.35546875 110.68359375 C-103.45553779 101.54570337 -108.45651934 91.57532381 -111.85546875 79.86328125 C-112.22285156 78.64769531 -112.59023438 77.43210937 -112.96875 76.1796875 C-114.25625276 70.88781684 -114.15564172 65.59403692 -114.10546875 60.17578125 C-114.09725098 59.107229 -114.0890332 58.03867676 -114.08056641 56.93774414 C-113.82098141 38.6035073 -109.92607765 23.07580965 -97.85546875 8.86328125 C-97.18902344 8.07308594 -96.52257812 7.28289062 -95.8359375 6.46875 C-72.34475397 -19.11441277 -27.0657723 -20.25304713 0 0 Z " fill="#010101" transform="translate(967.85546875,195.13671875)"/>
<path d="M0 0 C0 14.52 0 29.04 0 44 C-9.9 44.495 -9.9 44.495 -20 45 C-24.1988904 46.19380217 -27.27045432 47.09074634 -31 49 C-32.134375 49.5775 -33.26875 50.155 -34.4375 50.75 C-38.56698843 54.37589228 -40.28860743 58.86582228 -42 64 C-42.11929387 66.44743986 -42.18518708 68.8686787 -42.20532227 71.31713867 C-42.21522186 72.05884811 -42.22512146 72.80055756 -42.23532104 73.56474304 C-42.26690257 76.01578583 -42.29168021 78.466848 -42.31640625 80.91796875 C-42.33697867 82.61762495 -42.35797522 84.31727607 -42.37937927 86.016922 C-42.4345702 90.49014163 -42.48399262 94.96340721 -42.53222656 99.43670654 C-42.59129609 104.80405452 -42.65750769 110.17131854 -42.72252655 115.53859711 C-42.82049861 123.69234679 -42.90938025 131.84615035 -43 140 C-57.19 140 -71.38 140 -86 140 C-86 94.13 -86 48.26 -86 1 C-72.14 1 -58.28 1 -44 1 C-43.67 8.26 -43.34 15.52 -43 23 C-42.05125 21.68 -41.1025 20.36 -40.125 19 C-29.40786891 5.28552238 -17.20299578 0 0 0 Z " fill="#000000" transform="translate(847,183)"/>
<path d="M0 0 C0.66 0 1.32 0 2 0 C2 0.66 2 1.32 2 2 C2.66 2 3.32 2 4 2 C4 1.34 4 0.68 4 0 C4.63164063 0.13277344 5.26328125 0.26554687 5.9140625 0.40234375 C12.65196715 1.73244885 19.27214397 2.38590915 26.12890625 2.75390625 C29 3 29 3 31 4 C32.78776459 4.20431595 34.58064663 4.36530323 36.375 4.5 C41.59636575 4.89406534 41.59636575 4.89406534 44.0390625 5.53515625 C47.20016945 6.28450232 50.33466106 5.9628559 53.5625 5.83984375 C56.22834573 6.01500349 57.67413861 6.74688284 60 8 C62.32914823 8.36141955 64.66253478 8.69699525 67 9 C67.66 9.33 68.32 9.66 69 10 C71.2036832 10.32493988 73.41335585 10.6096027 75.625 10.875 C81.36911018 11.61603891 87.10048156 12.41581938 92.8125 13.375 C93.49973145 13.4766748 94.18696289 13.57834961 94.89501953 13.68310547 C96.83203125 14.0234375 96.83203125 14.0234375 100 15 C101.26171875 17.0390625 101.26171875 17.0390625 102 19 C102.99 19.33 103.98 19.66 105 20 C104.67 21.32 104.34 22.64 104 24 C104.99 24 105.98 24 107 24 C107 23.34 107 22.68 107 22 C113.00214936 21.70656159 117.23619185 22.45035359 122.75 24.75 C124.14104458 25.30560005 125.53298368 25.8589654 126.92578125 26.41015625 C127.60850098 26.68230957 128.2912207 26.95446289 128.99462891 27.23486328 C132.87299718 28.71463028 136.86005681 29.86992253 140.83984375 31.04296875 C141.55269531 31.35878906 142.26554687 31.67460938 143 32 C143.33 32.99 143.66 33.98 144 35 C145.78016512 35.62370167 145.78016512 35.62370167 148 36 C149.92325701 36.66884217 151.83969815 37.35750765 153.75 38.0625 C154.73484375 38.42472656 155.7196875 38.78695312 156.734375 39.16015625 C157.48203125 39.43730469 158.2296875 39.71445312 159 40 C159 40.99 159 41.98 159 43 C159.86625 43.26167969 160.7325 43.52335937 161.625 43.79296875 C168.96059969 46.41646447 180.32168916 51.64337832 184 59 C184.9075 59.144375 185.815 59.28875 186.75 59.4375 C190.25389758 60.04394381 192.07522249 61.02577518 195 63 C198.84551748 65.56930265 198.84551748 65.56930265 202.70410156 68.11889648 C204.43442464 69.25702212 206.15506868 70.40874516 207.875 71.5625 C208.46796875 71.94857422 209.0609375 72.33464844 209.671875 72.73242188 C211.16929705 73.74507941 212.59230997 74.86591144 214 76 C214 76.99 214 77.98 214 79 C215.65 79 217.3 79 219 79 C219.433125 80.2375 219.433125 80.2375 219.875 81.5 C221.98182879 85.7738527 225.71348369 88.08779155 229.4296875 90.91015625 C232.50408859 93.40985926 234.94780066 96.16398423 237.4296875 99.23828125 C239.12106536 101.13582208 240.92546248 102.54063919 243 104 C242.51337706 101.37223611 241.88030399 99.82045598 240.375 97.5625 C239 95 239 95 239.3125 92.1875 C239.6528125 91.1046875 239.6528125 91.1046875 240 90 C240.99 90 241.98 90 243 90 C242.2575 89.649375 241.515 89.29875 240.75 88.9375 C237.06185582 86.33903478 235.93112318 84.07681561 234 80 C234 78 234 76 234 74 C233.34 74 232.68 74 232 74 C232.33 73.01 232.66 72.02 233 71 C232.67 70.34 232.34 69.68 232 69 C232.061875 67.515 232.061875 67.515 232.125 66 C232.063125 64.515 232.063125 64.515 232 63 C231.01 62.34 230.02 61.68 229 61 C227.08080096 57.82594005 226.04981854 55.37719749 225.5625 51.6875 C224.95368631 47.69638804 223.67960417 44.7191807 221.9375 41.11328125 C220.53610879 37.9543119 220 35.46256498 220 32 C222.86120256 30.56939872 224.84010585 30.61307419 228 31 C229.6875 33.25 229.6875 33.25 231 36 C231.804375 36.928125 231.804375 36.928125 232.625 37.875 C234.52112884 40.80538094 234.67016395 43.56970509 235 47 C235.66 47 236.32 47 237 47 C237.16852247 48.60397277 237.33474886 50.2081869 237.5 51.8125 C237.5928125 52.70582031 237.685625 53.59914062 237.78125 54.51953125 C238 57 238 57 238 60 C238.66 60 239.32 60 240 60 C239.67 61.32 239.34 62.64 239 64 C239.99 64.33 240.98 64.66 242 65 C241.67 65.99 241.34 66.98 241 68 C240.34 67.67 239.68 67.34 239 67 C239 67.66 239 68.32 239 69 C240.32 69.33 241.64 69.66 243 70 C242.67 71.32 242.34 72.64 242 74 C243.65 74.66 245.3 75.32 247 76 C247 76.66 247 77.32 247 78 C248.45833358 79.62514468 248.45833358 79.62514468 250 81 C249.34 81.33 248.68 81.66 248 82 C248.45375 82.721875 248.9075 83.44375 249.375 84.1875 C251 87 251 87 252.0625 89.75 C252.77997664 92.16232993 252.77997664 92.16232993 255 93 C255.4140625 95.21484375 255.4140625 95.21484375 255.625 97.9375 C255.73714844 99.28134766 255.73714844 99.28134766 255.8515625 100.65234375 C255.94306431 102.09951706 256 103.54993684 256 105 C256.99 105 257.98 105 259 105 C259 108.3 259 111.6 259 115 C260.65 115.33 262.3 115.66 264 116 C262.515 116.99 262.515 116.99 261 118 C262.52206009 120.62901288 263.84365964 122.84365964 266 125 C265.34 125 264.68 125 264 125 C264.33 126.98 264.66 128.96 265 131 C264.34 131 263.68 131 263 131 C264.98 134.465 264.98 134.465 267 138 C266.34 138.66 265.68 139.32 265 140 C265.66 141.32 266.32 142.64 267 144 C265.56163249 143.88541307 264.12429034 143.75790884 262.6875 143.625 C261.88699219 143.55539063 261.08648438 143.48578125 260.26171875 143.4140625 C258 143 258 143 255 141 C252.71428423 140.67287763 250.46135232 140.5605032 248.15625 140.44140625 C245.52085389 139.90191393 244.58564691 139.14977129 243 137 C243 136.01 243 135.02 243 134 C242.34 134 241.68 134 241 134 C240.67 135.65 240.34 137.3 240 139 C239.34 138.67 238.68 138.34 238 138 C237.67 138.66 237.34 139.32 237 140 C236.34 140 235.68 140 235 140 C234.67 138.35 234.34 136.7 234 135 C233.01 135 232.02 135 231 135 C230.87625 134.360625 230.7525 133.72125 230.625 133.0625 C230.41875 132.381875 230.2125 131.70125 230 131 C229.34 130.67 228.68 130.34 228 130 C228.22816406 130.69867188 228.45632813 131.39734375 228.69140625 132.1171875 C228.97886719 133.02726563 229.26632812 133.93734375 229.5625 134.875 C229.85253906 135.77992188 230.14257812 136.68484375 230.44140625 137.6171875 C231 140 231 140 230 142 C229.34 142 228.68 142 228 142 C228 139.69 228 137.38 228 135 C227.34 135 226.68 135 226 135 C226 135.99 226 136.98 226 138 C225.01 138 224.02 138 223 138 C222.67 135.69 222.34 133.38 222 131 C221.34 132.98 220.68 134.96 220 137 C219.01 136.67 218.02 136.34 217 136 C216.67 135.01 216.34 134.02 216 133 C214.35 133.33 212.7 133.66 211 134 C210.34 132.68 209.68 131.36 209 130 C208.01 130 207.02 130 206 130 C204.3125 128.5 204.3125 128.5 203 127 C203 128.65 203 130.3 203 132 C202.01 132.33 201.02 132.66 200 133 C199.34 131.35 198.68 129.7 198 128 C197.34 128.66 196.68 129.32 196 130 C196 128.68 196 127.36 196 126 C195.34 126 194.68 126 194 126 C194.33 125.34 194.66 124.68 195 124 C196.32 124 197.64 124 199 124 C199 124.99 199 125.98 199 127 C199.99 127 200.98 127 202 127 C202.33 126.01 202.66 125.02 203 124 C203.556875 124.09539062 204.11375 124.19078125 204.6875 124.2890625 C208.90996832 124.90246161 212.20097527 125.14484945 216.3125 123.875 C220 123 220 123 222.5 124.25 C224 126 224 126 224 128 C224.70125 127.62875 225.4025 127.2575 226.125 126.875 C229.81427975 125.75217573 231.48063766 126.57727906 235 128 C236.32911682 128.34976758 237.66082739 128.69096017 239 129 C239 129.66 239 130.32 239 131 C240.93798521 130.69052329 242.87537426 130.37731166 244.8125 130.0625 C245.89144531 129.88847656 246.97039062 129.71445313 248.08203125 129.53515625 C251.04933356 129.06128079 251.04933356 129.06128079 254 128 C253.67 127.34 253.34 126.68 253 126 C252.01 125.67 251.02 125.34 250 125 C250 124.34 250 123.68 250 123 C249.01 123 248.02 123 247 123 C247 122.34 247 121.68 247 121 C245.68 120.34 244.36 119.68 243 119 C243 118.34 243 117.68 243 117 C242.34 117 241.68 117 241 117 C240.360625 116.175 239.72125 115.35 239.0625 114.5 C236.57779121 111.3457589 233.72993572 109.28275544 230.4375 107 C224.58182392 102.91119014 224.58182392 102.91119014 222.75 99.6875 C220.89672962 96.84140621 220.31486628 96.48444982 217.3125 95.3125 C216.219375 94.879375 215.12625 94.44625 214 94 C213.67 93.01 213.34 92.02 213 91 C212.13375 90.814375 212.13375 90.814375 211.25 90.625 C207.93677832 89.70466065 206.40446897 87.4383825 204 85 C201.85032739 83.10025799 199.64522907 81.26922918 197.4375 79.4375 C193.79942403 76.4147786 190.33650372 73.3584544 187 70 C184.12470535 67.91999962 181.58962907 66.21441057 178.25 65 C175.45061916 63.75583074 175.23499527 62.71698959 174 60 C172.26961928 58.09798258 172.26961928 58.09798258 170 57 C169.175 57.165 168.35 57.33 167.5 57.5 C165 58 165 58 162.875 56.625 C162.25625 56.08875 161.6375 55.5525 161 55 C160.01 54.67 159.02 54.34 158 54 C158 53.34 158 52.68 158 52 C159.32 52.33 160.64 52.66 162 53 C161.67 52.34 161.34 51.68 161 51 C158.61234108 50.68289895 158.61234108 50.68289895 155.8125 50.625 C150.64476909 50.24818629 147.82374952 49.51371578 144 46 C144 45.01 144 44.02 144 43 C141.72600578 42.26907328 140.34648094 41.91337977 138 42.5 C135.59854978 43.10036256 134.34124647 42.73163952 132 42 C131.2575 41.814375 130.515 41.62875 129.75 41.4375 C129.1725 41.293125 128.595 41.14875 128 41 C128.33 40.01 128.66 39.02 129 38 C126.03 38.33 123.06 38.66 120 39 C120 38.34 120 37.68 120 37 C119.2575 37.0825 118.515 37.165 117.75 37.25 C114.18558943 36.92596268 113.35138973 35.5865287 111 33 C110.01 32.67 109.02 32.34 108 32 C107.67 31.34 107.34 30.68 107 30 C106.236875 30.185625 105.47375 30.37125 104.6875 30.5625 C102 31 102 31 99 30 C98.34 29.01 97.68 28.02 97 27 C96.34 27 95.68 27 95 27 C94.67 27.66 94.34 28.32 94 29 C93.34 29 92.68 29 92 29 C92 28.34 92 27.68 92 27 C89.69 26.34 87.38 25.68 85 25 C84.67 25.66 84.34 26.32 84 27 C78.375 27.25 78.375 27.25 75 25 C70.670051 23.29500592 66.75854802 22.65868661 62.125 22.375 C60.97257812 22.30023438 59.82015625 22.22546875 58.6328125 22.1484375 C57.32957031 22.07496094 57.32957031 22.07496094 56 22 C55.67 21.01 55.34 20.02 55 19 C54.01 18.67 53.02 18.34 52 18 C51.67 18.66 51.34 19.32 51 20 C50.154375 19.855625 49.30875 19.71125 48.4375 19.5625 C46.10841776 19.18137745 43.77465221 18.82802136 41.4375 18.5 C35.28699552 17.60538117 35.28699552 17.60538117 33 17 C32.67 16.34 32.34 15.68 32 15 C29.45058627 14.68758629 26.99638487 14.48696579 24.4375 14.375 C23.72658203 14.33632813 23.01566406 14.29765625 22.28320312 14.2578125 C20.52257575 14.16328217 18.76132272 14.08054183 17 14 C17 14.33 17 14.66 17 15 C15.02 15 13.04 15 11 15 C11 15.66 11 16.32 11 17 C9.35 17.33 7.7 17.66 6 18 C6.66 16.68 7.32 15.36 8 14 C7.39671875 14.144375 6.7934375 14.28875 6.171875 14.4375 C5.37265625 14.623125 4.5734375 14.80875 3.75 15 C2.96109375 15.185625 2.1721875 15.37125 1.359375 15.5625 C-1 16 -1 16 -5 16 C-5.66 16.33 -6.32 16.66 -7 17 C-7 16.34 -7 15.68 -7 15 C-7.95261719 15.01160156 -8.90523437 15.02320313 -9.88671875 15.03515625 C-11.14097656 15.04417969 -12.39523437 15.05320312 -13.6875 15.0625 C-14.92886719 15.07410156 -16.17023438 15.08570313 -17.44921875 15.09765625 C-21 15 -21 15 -23.7890625 14.43359375 C-26.11705088 13.77707312 -26.11705088 13.77707312 -28.6875 15 C-33.28091866 16.38669243 -37.35059132 16.13634429 -42 15 C-44.4375 13 -44.4375 13 -46 11 C-46.99 10.67 -47.98 10.34 -49 10 C-48.67 10.99 -48.34 11.98 -48 13 C-47.01 13.33 -46.02 13.66 -45 14 C-47.36808779 16.93642886 -48.72597649 17.93024856 -52.4375 18.875 C-56.07224332 19.00253485 -57.75244976 18.45285142 -61 17 C-63.70886941 16.83201738 -63.70886941 16.83201738 -66 17 C-65.67 17.66 -65.34 18.32 -65 19 C-63.02 19 -61.04 19 -59 19 C-59 19.66 -59 20.32 -59 21 C-59.83144531 21.06058594 -60.66289063 21.12117188 -61.51953125 21.18359375 C-62.60621094 21.26738281 -63.69289063 21.35117187 -64.8125 21.4375 C-65.89144531 21.51871094 -66.97039062 21.59992187 -68.08203125 21.68359375 C-71.05989905 21.90212461 -71.05989905 21.90212461 -74 23 C-75.99961564 23.03920815 -78.00049364 23.04443347 -80 23 C-80 23.66 -80 24.32 -80 25 C-83.07170136 26.43986001 -85.84197212 27.18468082 -89.1875 27.5625 C-92.7981844 27.75645561 -92.7981844 27.75645561 -95 29 C-97.35981813 28.06421005 -99.69631264 27.06652192 -102 26 C-101.01 29.465 -101.01 29.465 -100 33 C-100.5775 32.79375 -101.155 32.5875 -101.75 32.375 C-104.51967567 31.91338739 -105.64561267 32.57055055 -108 34 C-108.33 33.67 -108.66 33.34 -109 33 C-109.495 33.99 -109.495 33.99 -110 35 C-110.99 35 -111.98 35 -113 35 C-113.33 35.99 -113.66 36.98 -114 38 C-119.94 38.495 -119.94 38.495 -126 39 C-126 39.99 -126 40.98 -126 42 C-130.75 41.125 -130.75 41.125 -133 40 C-137.14503661 39.75212983 -137.14503661 39.75212983 -141 41 C-137.04 41.99 -133.08 42.98 -129 44 C-129.66 45.65 -130.32 47.3 -131 49 C-132.98 49 -134.96 49 -137 49 C-136.01 48.34 -135.02 47.68 -134 47 C-136.64 47 -139.28 47 -142 47 C-141.67 47.99 -141.34 48.98 -141 50 C-143.37375443 52.74855776 -145.66357897 53.6829917 -149 55 C-149.495 55.99 -149.495 55.99 -150 57 C-150.66 57 -151.32 57 -152 57 C-152.19335938 56.43410156 -152.38671875 55.86820313 -152.5859375 55.28515625 C-152.97652344 54.18494141 -152.97652344 54.18494141 -153.375 53.0625 C-153.75785156 51.96615234 -153.75785156 51.96615234 -154.1484375 50.84765625 C-154.85271413 48.81317884 -154.85271413 48.81317884 -157 48 C-158.07525194 50.65228812 -159.09456151 53.28368454 -160 56 C-158.515 56.495 -158.515 56.495 -157 57 C-159.62276455 60.93414682 -161.43877287 61.08775457 -166 62 C-169.4375 61.625 -169.4375 61.625 -172 61 C-172.33 61.99 -172.66 62.98 -173 64 C-174.77734375 65.75390625 -174.77734375 65.75390625 -176.9375 67.5625 C-179.03343963 69.33130568 -181.05994888 71.05994888 -183 73 C-185.6015625 73.1953125 -185.6015625 73.1953125 -188.625 73.125 C-189.62789063 73.10695313 -190.63078125 73.08890625 -191.6640625 73.0703125 C-192.43492187 73.04710938 -193.20578125 73.02390625 -194 73 C-194.0721875 73.6290625 -194.144375 74.258125 -194.21875 74.90625 C-194.4765625 75.5971875 -194.734375 76.288125 -195 77 C-197.28597611 78.01989703 -199.5382593 78.5092016 -201.96875 79.09375 C-202.6390625 79.3928125 -203.309375 79.691875 -204 80 C-204.85058414 82.02333407 -204.85058414 82.02333407 -205 84 C-203.68 84.33 -202.36 84.66 -201 85 C-201.763125 85.5775 -202.52625 86.155 -203.3125 86.75 C-205.66200917 88.71703093 -207.29323505 90.48476744 -209 93 C-209.928125 92.79375 -210.85625 92.5875 -211.8125 92.375 C-215.15173402 91.63307034 -215.15173402 91.63307034 -218 94 C-219.20450304 96.55183404 -219.20450304 96.55183404 -220 99 C-222 98 -222 98 -223 97 C-223.33 98.32 -223.66 99.64 -224 101 C-225.32 100.67 -226.64 100.34 -228 100 C-228 99.34 -228 98.68 -228 98 C-224.53846154 95 -224.53846154 95 -222 95 C-221.731875 94.030625 -221.46375 93.06125 -221.1875 92.0625 C-220.795625 91.051875 -220.40375 90.04125 -220 89 C-217.1080406 88.03601353 -215.0005625 88 -212 88 C-212 87.34 -212 86.68 -212 86 C-211.34 86 -210.68 86 -210 86 C-210 84.35 -210 82.7 -210 81 C-209.34 81 -208.68 81 -208 81 C-207.79890625 80.4225 -207.5978125 79.845 -207.390625 79.25 C-205.42905341 76.07622124 -202.95423548 74.87279516 -199.75 73 C-191.30424509 68.2527312 -191.30424509 68.2527312 -184 62 C-180.64931745 58.56190834 -177.19904653 55.37252585 -173.5 52.3125 C-172.5821875 51.54550781 -171.664375 50.77851562 -170.71875 49.98828125 C-166.86291696 47.16842634 -163.28037055 45.9485132 -158.625 45.125 C-153.68038693 44.07839023 -149.11810835 42.32931574 -145.62890625 38.4921875 C-143.51854018 36.55895047 -141.52426133 35.95367121 -138.8125 35.0625 C-135.28018884 33.85088931 -131.98307028 32.56844092 -128.6875 30.8125 C-125.49364952 29.13325903 -122.62242567 28.36224257 -119 28 C-119 27.34 -119 26.68 -119 26 C-118.34773437 25.95101562 -117.69546875 25.90203125 -117.0234375 25.8515625 C-112.06720147 25.42757771 -107.66980549 24.84334427 -103 23 C-103 22.34 -103 21.68 -103 21 C-102.19175781 20.89042969 -101.38351562 20.78085937 -100.55078125 20.66796875 C-99.48214844 20.50941406 -98.41351562 20.35085937 -97.3125 20.1875 C-96.25675781 20.03667969 -95.20101562 19.88585937 -94.11328125 19.73046875 C-90.83781838 18.96194735 -88.86468556 17.72305531 -86 16 C-83.20651924 15.00163645 -80.36029582 14.22049981 -77.5 13.4375 C-70.3552681 11.44462573 -63.84995702 8.97666869 -57.18359375 5.70703125 C-54.62968567 4.880095 -53.47130348 5.01252356 -51 6 C-50.01 6.99 -50.01 6.99 -49 8 C-47.02793553 7.67132259 -45.23515877 7.07746407 -43.33984375 6.453125 C-40.03742386 5.81359127 -36.78302803 5.98389267 -33.4375 6.0625 C-26.75189787 6.15416731 -20.52990372 5.54946868 -14 4 C-14 4.66 -14 5.32 -14 6 C-7.47201999 5.84528308 -7.47201999 5.84528308 -2.0625 2.4375 C-1.381875 1.633125 -0.70125 0.82875 0 0 Z " fill="#FC420C" transform="translate(643,16)"/>
<path d="M0 0 C6.66972825 5.31364242 11.76488145 12.45200131 13 21 C14.00134768 33.28235317 13.09564782 42.38671147 5.1015625 52.37109375 C-1.05166032 58.99857683 -7.75844347 62.5467026 -16.796875 63.203125 C-27.40209528 63.37146183 -35.8671823 61.08103253 -44 54 C-50.71925179 46.24406365 -53.39261626 38.80548725 -53.3125 28.625 C-53.30686035 27.87549072 -53.3012207 27.12598145 -53.29541016 26.35375977 C-53.09229405 17.09387742 -50.69793942 9.65734585 -44 3 C-30.45738752 -7.37654169 -14.67694832 -9.43097081 0 0 Z " fill="#F8F8F9" transform="translate(96,224)"/>
<path d="M0 0 C3.42375 -0.0825 6.8475 -0.165 10.375 -0.25 C11.96127197 -0.30462402 11.96127197 -0.30462402 13.57958984 -0.36035156 C20.78510693 -0.44325044 27.98422729 0.56934209 33.65380859 5.4128418 C38.3119805 10.68855517 39.46943647 15.58174627 39.31640625 22.4375 C38.51306936 28.94353703 34.98304039 33.8677226 30 38 C20.83884925 42.69802603 9.82776901 41 0 41 C0 27.47 0 13.94 0 0 Z " fill="#F8F7F8" transform="translate(203,214)"/>
<path d="M0 0 C1.72199901 2.58299851 2.57637791 4.3672635 3.5246582 7.24926758 C3.80867996 8.10478714 4.09270172 8.9603067 4.3853302 9.8417511 C4.68742905 10.76666855 4.98952789 11.691586 5.30078125 12.64453125 C5.61903366 13.605905 5.93728607 14.56727875 6.2651825 15.55778503 C7.285217 18.64130177 8.29917215 21.72677345 9.3125 24.8125 C10.63961404 28.84060983 11.96954724 32.86778132 13.30078125 36.89453125 C13.62023712 37.86303009 13.93969299 38.83152893 14.26882935 39.82937622 C16.46035471 46.44827705 18.75752655 53.01835561 21.17651367 59.55737305 C22 62 22 62 22 64 C7.81 64 -6.38 64 -21 64 C-18.74962296 53.87330331 -18.74962296 53.87330331 -17.13647461 49.03710938 C-16.77947983 47.95989624 -16.42248505 46.88268311 -16.05467224 45.77282715 C-15.67440384 44.64123169 -15.29413544 43.50963623 -14.90234375 42.34375 C-14.50801651 41.16026978 -14.11368927 39.97678955 -13.70741272 38.75744629 C-12.6672293 35.63981858 -11.6228545 32.52363474 -10.57684326 29.40795898 C-9.72054554 26.85255405 -8.86987134 24.29529219 -8.01923275 21.73799896 C-7.0042331 18.68886904 -5.98441396 15.6413541 -4.96484375 12.59375 C-4.58255112 11.44596069 -4.20025848 10.29817139 -3.80638123 9.11560059 C-3.4525386 8.06360474 -3.09869598 7.01160889 -2.73413086 5.92773438 C-2.42261581 4.99779663 -2.11110077 4.06785889 -1.79014587 3.10974121 C-1 1 -1 1 0 0 Z " fill="#F4F4F4" transform="translate(659,195)"/>
<path d="M0 0 C7.21592139 4.1651747 12.01149029 9.44166939 15.0234375 17.16796875 C15.0234375 18.15796875 15.0234375 19.14796875 15.0234375 20.16796875 C-4.4465625 20.16796875 -23.9165625 20.16796875 -43.9765625 20.16796875 C-41.08636475 10.05227664 -37.36413048 5.4371507 -28.24609375 0.296875 C-20.561213 -3.52572489 -7.97921031 -3.25588467 0 0 Z " fill="#F8F7F8" transform="translate(373.9765625,217.83203125)"/>
<path d="M0 0 C0.66 0.33 1.32 0.66 2 1 C1.67 2.98 1.34 4.96 1 7 C2.32 7.33 3.64 7.66 5 8 C4.236875 8.5775 3.47375 9.155 2.6875 9.75 C0.33799083 11.71703093 -1.29323505 13.48476744 -3 16 C-3.928125 15.79375 -4.85625 15.5875 -5.8125 15.375 C-9.15173402 14.63307034 -9.15173402 14.63307034 -12 17 C-13.20450304 19.55183404 -13.20450304 19.55183404 -14 22 C-16 21 -16 21 -17 20 C-17.33 21.32 -17.66 22.64 -18 24 C-19.32 23.67 -20.64 23.34 -22 23 C-22 22.34 -22 21.68 -22 21 C-18.53846154 18 -18.53846154 18 -16 18 C-15.731875 17.030625 -15.46375 16.06125 -15.1875 15.0625 C-14.795625 14.051875 -14.40375 13.04125 -14 12 C-11.1080406 11.03601353 -9.0005625 11 -6 11 C-6 10.34 -6 9.68 -6 9 C-5.34 9 -4.68 9 -4 9 C-4 7.35 -4 5.7 -4 4 C-3.34 4 -2.68 4 -2 4 C-1.34 2.68 -0.68 1.36 0 0 Z " fill="#FC4D1B" transform="translate(437,93)"/>
<path d="M0 0 C0.66 0.33 1.32 0.66 2 1 C4.09821215 0.60061233 4.09821215 0.60061233 6 0 C6.66 0.99 7.32 1.98 8 3 C6.3603125 3.309375 6.3603125 3.309375 4.6875 3.625 C0.7714341 4.65663938 0.7714341 4.65663938 -0.9375 8.125 C-1.288125 9.07375 -1.63875 10.0225 -2 11 C-4 10 -4 10 -5 9 C-5.33 10.32 -5.66 11.64 -6 13 C-7.32 12.67 -8.64 12.34 -10 12 C-10 11.34 -10 10.68 -10 10 C-6.53846154 7 -6.53846154 7 -4 7 C-3.566875 5.5459375 -3.566875 5.5459375 -3.125 4.0625 C-2 1 -2 1 0 0 Z " fill="#FC5626" transform="translate(425,104)"/>
<path d="M0 0 C1.98 0.99 1.98 0.99 4 2 C4.33 1.34 4.66 0.68 5 0 C7.79828356 0.38597015 8.8205884 0.80136573 10.75 2.9375 C12 5 12 5 12 7 C8.89910366 6.98699834 5.99392117 6.84403097 3 6 C0.9375 2.9375 0.9375 2.9375 0 0 Z " fill="#FC5829" transform="translate(898,153)"/>
<path d="M0 0 C2.375 1 2.375 1 4 2 C4 2.99 4 3.98 4 5 C-0.71403788 4.52060632 -4.66579301 4.03165952 -9 2 C-5.51195905 -0.32536063 -4.09859246 -0.33457898 0 0 Z " fill="#FAE4DE" transform="translate(510,55)"/>
<path d="M0 0 C0.33 0.66 0.66 1.32 1 2 C1.66 2.33 2.32 2.66 3 3 C1.06745228 5.0245738 -0.63158688 6.42105792 -3 8 C-3.72382467 10.05925139 -3.72382467 10.05925139 -4 12 C-5.32 11.67 -6.64 11.34 -8 11 C-8 10.01 -8 9.02 -8 8 C-7.01 7.67 -6.02 7.34 -5 7 C-3.61061923 5.03852126 -2.2739589 3.03833424 -1 1 C-0.67 0.67 -0.34 0.34 0 0 Z " fill="#FBA992" transform="translate(409,119)"/>
<path d="M0 0 C2.375 1.25 2.375 1.25 3.375 4.25 C0.075 4.58 -3.225 4.91 -6.625 5.25 C-6.295 3.6 -5.965 1.95 -5.625 0.25 C-2.625 -0.75 -2.625 -0.75 0 0 Z " fill="#FAD7CD" transform="translate(444.625,94.75)"/>
<path d="M0 0 C0 1.32 0 2.64 0 4 C1.32 3.67 2.64 3.34 4 3 C4 3.66 4 4.32 4 5 C3.01 5 2.02 5 1 5 C0.67 6.32 0.34 7.64 0 9 C-0.66 8.67 -1.32 8.34 -2 8 C-2 6.02 -2 4.04 -2 2 C-2.33 2.99 -2.66 3.98 -3 5 C-3.66 5 -4.32 5 -5 5 C-5 4.01 -5 3.02 -5 2 C-5.66 1.67 -6.32 1.34 -7 1 C-2.25 0 -2.25 0 0 0 Z " fill="#FBAA92" transform="translate(835,139)"/>
<path d="M0 0 C2.64 0 5.28 0 8 0 C8.33 1.32 8.66 2.64 9 4 C5.7 4.33 2.4 4.66 -1 5 C-1 2 -1 2 0 0 Z " fill="#FAD3C7" transform="translate(501,62)"/>
<path d="M0 0 C0.99 0.33 1.98 0.66 3 1 C3 2.32 3 3.64 3 5 C3.99 5 4.98 5 6 5 C6.625 6.8125 6.625 6.8125 7 9 C6.01 10.485 6.01 10.485 5 12 C2.03162219 7.97832683 0.47610659 4.99911924 0 0 Z " fill="#FAC1B1" transform="translate(871,146)"/>
<path d="M0 0 C2.97 0 5.94 0 9 0 C9.33 0.99 9.66 1.98 10 3 C7.69 3.66 5.38 4.32 3 5 C2.67 4.34 2.34 3.68 2 3 C1.34 2.67 0.68 2.34 0 2 C0 1.34 0 0.68 0 0 Z " fill="#FABFAD" transform="translate(451,88)"/>
<path d="M0 0 C3.96 0 7.92 0 12 0 C12 0.33 12 0.66 12 1 C10.02 1 8.04 1 6 1 C6 2.32 6 3.64 6 5 C4.35 4.67 2.7 4.34 1 4 C0.67 2.68 0.34 1.36 0 0 Z " fill="#FAC2B2" transform="translate(516,54)"/>
<path d="M0 0 C4.875 1.75 4.875 1.75 6 4 C5.34 4 4.68 4 4 4 C3.67 4.66 3.34 5.32 3 6 C1.02 5.01 -0.96 4.02 -3 3 C-2.01 2.01 -1.02 1.02 0 0 Z " fill="#FAC3B2" transform="translate(783,57)"/>
<path d="M0 0 C2.9375 0.75 2.9375 0.75 6 2 C6.875 4.125 6.875 4.125 7 6 C6.01 6 5.02 6 4 6 C3.67 6.66 3.34 7.32 3 8 C0 1.125 0 1.125 0 0 Z " fill="#FAC4B5" transform="translate(540,41)"/>
<path d="M0 0 C0.99 0.66 1.98 1.32 3 2 C3 3.32 3 4.64 3 6 C1.68 6.33 0.36 6.66 -1 7 C-1.33 5.02 -1.66 3.04 -2 1 C-1.34 0.67 -0.68 0.34 0 0 Z " fill="#FAD9CF" transform="translate(851,145)"/>
<path d="M0 0 C0.7425 0.391875 1.485 0.78375 2.25 1.1875 C1.92 1.8475 1.59 2.5075 1.25 3.1875 C-0.75 2.1875 -0.75 2.1875 -1.75 1.1875 C-2.08 2.5075 -2.41 3.8275 -2.75 5.1875 C-4.07 4.8575 -5.39 4.5275 -6.75 4.1875 C-6.75 2.1875 -6.75 2.1875 -5.0625 0.4375 C-2.75 -0.8125 -2.75 -0.8125 0 0 Z " fill="#FB805D" transform="translate(421.75,111.8125)"/>
<path d="M0 0 C0.99 0.33 1.98 0.66 3 1 C3 1.66 3 2.32 3 3 C1.02 3 -0.96 3 -3 3 C-3 3.66 -3 4.32 -3 5 C-4.65 5.33 -6.3 5.66 -8 6 C-7.34 4.35 -6.68 2.7 -6 1 C-3.03 1.495 -3.03 1.495 0 2 C0 1.34 0 0.68 0 0 Z " fill="#FB8361" transform="translate(657,28)"/>
<path d="M0 0 C3.43595166 1.52708963 6.11912454 3.59927045 9 6 C7 7 7 7 4.5 6.375 C2 5 2 5 0.6875 2.375 C0.460625 1.59125 0.23375 0.8075 0 0 Z " fill="#FBA68E" transform="translate(898,153)"/>
<path d="M0 0 C0.66 0 1.32 0 2 0 C2.66 1.98 3.32 3.96 4 6 C2.35 6.33 0.7 6.66 -1 7 C-0.67 4.69 -0.34 2.38 0 0 Z " fill="#FBA68E" transform="translate(884,150)"/>
<path d="M0 0 C2.0625 0.4375 2.0625 0.4375 4 1 C4 2.98 4 4.96 4 7 C3.67 6.34 3.34 5.68 3 5 C2.01 5 1.02 5 0 5 C-0.5625 3.0625 -0.5625 3.0625 -1 1 C-0.67 0.67 -0.34 0.34 0 0 Z " fill="#FAD6CC" transform="translate(899,116)"/>
<path d="M0 0 C-0.33 0.99 -0.66 1.98 -1 3 C-3.0625 3.6875 -3.0625 3.6875 -5 4 C-5 4.66 -5 5.32 -5 6 C-5.99 6 -6.98 6 -8 6 C-8 5.34 -8 4.68 -8 4 C-3.64705882 0 -3.64705882 0 0 0 Z " fill="#FC5929" transform="translate(418,121)"/>
<path d="M0 0 C0 1.65 0 3.3 0 5 C-1.65 5.66 -3.3 6.32 -5 7 C-4.6875 4.625 -4.6875 4.625 -4 2 C-1 0 -1 0 0 0 Z " fill="#FAE4DD" transform="translate(431,99)"/>
<path d="M0 0 C5.75 -0.125 5.75 -0.125 8 1 C8 1.66 8 2.32 8 3 C5.69 3.33 3.38 3.66 1 4 C0.67 2.68 0.34 1.36 0 0 Z " fill="#FAE0D8" transform="translate(576,32)"/>
<path d="M0 0 C1.875 0.3125 1.875 0.3125 4 1 C4.66 1.99 5.32 2.98 6 4 C5.67 4.66 5.34 5.32 5 6 C4.34 5.67 3.68 5.34 3 5 C2.01 4.67 1.02 4.34 0 4 C0 2.68 0 1.36 0 0 Z " fill="#FACABC" transform="translate(594,26)"/>
<path d="M0 0 C0.33 0 0.66 0 1 0 C1 3.3 1 6.6 1 10 C-2 7 -2 7 -2.3125 4.4375 C-2 2 -2 2 0 0 Z " fill="#FAC0AF" transform="translate(865,146)"/>
<path d="M0 0 C1.65 0 3.3 0 5 0 C5 0.99 5 1.98 5 3 C5.66 3.33 6.32 3.66 7 4 C6.01 4 5.02 4 4 4 C3.34 4.66 2.68 5.32 2 6 C2 4.68 2 3.36 2 2 C1.34 2 0.68 2 0 2 C0 1.34 0 0.68 0 0 Z " fill="#FC5A2C" transform="translate(837,140)"/>
</svg>
